# xmcd
#
# Track frame offsets: 
#        150
#        30750
#        59813
#        80551
#        102989
#        132196
#        152596
#        181771
#        202787
#        228392
#        251942
#
# Disc length: 3635 seconds
#
# Revision: 0
# Processed by: cddbd v1.5.2PL0 Copyright (c) Steve Scherf et al.
# Submitted via: ExactAudioCopy v1.0b4
#
DISCID=880e310b
DTITLE=Milton Hopkins Hit City Blues Band - Live At Danton's
DYEAR=2012
DGENRE=Blues
TTITLE0=Long Distance Call
TTITLE1=When It Rains It Pours
TTITLE2=Chain Of Fools
TTITLE3=The Blues Is Alright
TTITLE4=When Something Wrong With My Baby
TTITLE5=Crosscut Saw
TTITLE6=Cleo's Back
TTITLE7=Big Legged Woman
TTITLE8=County Girl
TTITLE9=Medley - My Toot Toot, Colinda, Jambalaya On The Bayou, The Sa
TTITLE9=ints
TTITLE10=My Babe
EXTD=
EXTT0=
EXTT1=
EXTT2=
EXTT3=
EXTT4=
EXTT5=
EXTT6=
EXTT7=
EXTT8=
EXTT9=
EXTT10=
PLAYORDER=
